/* XPM */
static const char * tbicon[] = {
/* columns rows colors chars-per-pixel */
"32 32 4 1 ",
"  c None",
". c black",
"X c red",
"o c yellow",
/* pixels */
"            ........            ",
"         ...oooooooo...         ",
"       ..oooooooooooooo..       ",
"      ..oooooooooooooooo..      ",
"     .oooooooooooooooooooo.     ",
"    .oooooooooooooooooooooo.    ",
"   .oooooooooooooooooooooooo.   ",
"  ..oooooooooooooooooooooooo..  ",
"  .oooooooo..oooooo..oooooooo.  ",
" .oooooooo....oooo....oooooooo. ",
" .oooooooo....oooo....oooooooo. ",
" .oooooooo....oooo....oooooooo. ",
".ooooooooo....oooo....ooooooooo.",
".ooooooooo....oooo....ooooooooo.",
".oooooooooo..oooooo..oooooooooo.",
".ooooooo.oooooooooooooo.ooooooo.",
".ooooooo.oooooooooooooo.ooooooo.",
".oooooo.oooooooooooooooo.oooooo.",
".ooo....oooooooooooooooo....ooo.",
".ooooooo.oooooooooooooo.ooooooo.",
" .ooooooo.oooooooooooo.ooooooo. ",
" .ooooooo..oooooooooo..ooooooo. ",
" .oooooooo...oooooo...oooooooo. ",
"  .oooooooo.X......X.oooooooo.  ",
"  ..oooooooo.XXXXXX.oooooooo..  ",
"   .ooooooooo.XXXX.ooooooooo.   ",
"    .ooooooooo....ooooooooo.    ",
"     .oooooooooooooooooooo.     ",
"      ..oooooooooooooooo..      ",
"       ..oooooooooooooo..       ",
"         ...oooooooo...         ",
"            ........            "
};
